<svg width="139" height="20" viewBox="0 0 139 20" fill="none" xmlns="http://www.w3.org/2000/svg">
<path d="M139 20H0V0H139V20Z" stroke="#E5E7EB"/>
<g clip-path="url(#clip0_3_106)">
<g clip-path="url(#clip1_3_106)">
<path d="M18.75 1.25001C18.75 0.746102 18.4453 0.28907 17.9766 0.0937578C17.5078 -0.101555 16.9727 0.00782035 16.6133 0.363289L14.9102 2.07032C13.0352 3.94532 10.4922 5.00001 7.83984 5.00001H7.5H6.25H2.5C1.12109 5.00001 0 6.1211 0 7.50001V11.25C0 12.6289 1.12109 13.75 2.5 13.75V18.75C2.5 19.4414 3.05859 20 3.75 20H6.25C6.94141 20 7.5 19.4414 7.5 18.75V13.75H7.83984C10.4922 13.75 13.0352 14.8047 14.9102 16.6797L16.6133 18.3828C16.9727 18.7422 17.5078 18.8477 17.9766 18.6524C18.4453 18.457 18.75 18.0039 18.75 17.4961V11.7344C19.4766 11.3906 20 10.4649 20 9.37501C20 8.28516 19.4766 7.35938 18.75 7.01563V1.25001ZM16.25 4.2461V9.37501V14.5039C13.9531 12.4141 10.957 11.25 7.83984 11.25H7.5V7.50001H7.83984C10.957 7.50001 13.9531 6.33595 16.25 4.2461Z" fill="#1E3A8A"/>
</g>
</g>
<defs>
<clipPath id="clip0_3_106">
<rect width="20" height="20" fill="white"/>
</clipPath>
<clipPath id="clip1_3_106">
<path d="M0 0H20V20H0V0Z" fill="white"/>
</clipPath>
</defs>
</svg>
