<svg width="139" height="20" viewBox="0 0 139 20" fill="none" xmlns="http://www.w3.org/2000/svg">
<path d="M139 20H0V0H139V20Z" stroke="#E5E7EB"/>
<g clip-path="url(#clip0_3_100)">
<g clip-path="url(#clip1_3_100)">
<path d="M3.75 5C3.75 3.67392 4.27678 2.40215 5.21447 1.46447C6.15215 0.526784 7.42392 0 8.75 0C10.0761 0 11.3479 0.526784 12.2855 1.46447C13.2232 2.40215 13.75 3.67392 13.75 5C13.75 6.32608 13.2232 7.59785 12.2855 8.53553C11.3479 9.47322 10.0761 10 8.75 10C7.42392 10 6.15215 9.47322 5.21447 8.53553C4.27678 7.59785 3.75 6.32608 3.75 5ZM0 18.8398C0 14.9922 3.11719 11.875 6.96484 11.875H10.5352C14.3828 11.875 17.5 14.9922 17.5 18.8398C17.5 19.4805 16.9805 20 16.3398 20H1.16016C0.519531 20 0 19.4805 0 18.8398ZM24.4141 6.91406L19.4141 11.9141C19.0469 12.2812 18.4531 12.2812 18.0898 11.9141L15.5898 9.41406C15.2227 9.04688 15.2227 8.45312 15.5898 8.08984C15.957 7.72656 16.5508 7.72266 16.9141 8.08984L18.75 9.92578L23.0859 5.58594C23.4531 5.21875 24.0469 5.21875 24.4102 5.58594C24.7734 5.95312 24.7773 6.54687 24.4102 6.91016L24.4141 6.91406Z" fill="#059669"/>
</g>
</g>
<defs>
<clipPath id="clip0_3_100">
<rect width="25" height="20" fill="white"/>
</clipPath>
<clipPath id="clip1_3_100">
<path d="M0 0H25V20H0V0Z" fill="white"/>
</clipPath>
</defs>
</svg>
