<svg width="18" height="20" viewBox="0 0 18 20" fill="none" xmlns="http://www.w3.org/2000/svg">
<g clip-path="url(#clip0_3_134)">
<g clip-path="url(#clip1_3_134)">
<path d="M8.74998 0C8.05858 0 7.49998 0.558594 7.49998 1.25V2C4.64842 2.57812 2.49998 5.10156 2.49998 8.125V8.85938C2.49998 10.6953 1.8242 12.4688 0.605453 13.8438L0.316391 14.168C-0.011734 14.5352 -0.0898591 15.0625 0.10936 15.5117C0.308578 15.9609 0.757797 16.25 1.24998 16.25H16.25C16.7422 16.25 17.1875 15.9609 17.3906 15.5117C17.5937 15.0625 17.5117 14.5352 17.1836 14.168L16.8945 13.8438C15.6758 12.4688 15 10.6992 15 8.85938V8.125C15 5.10156 12.8515 2.57812 9.99998 2V1.25C9.99998 0.558594 9.44139 0 8.74998 0ZM10.5195 19.2695C10.9883 18.8008 11.25 18.1641 11.25 17.5H8.74998H6.24998C6.24998 18.1641 6.5117 18.8008 6.98045 19.2695C7.4492 19.7383 8.08592 20 8.74998 20C9.41405 20 10.0508 19.7383 10.5195 19.2695Z" fill="#9CA3AF"/>
</g>
</g>
<defs>
<clipPath id="clip0_3_134">
<rect width="17.5" height="20" fill="white"/>
</clipPath>
<clipPath id="clip1_3_134">
<path d="M0 0H17.5V20H0V0Z" fill="white"/>
</clipPath>
</defs>
</svg>
