<svg width="48" height="48" viewBox="0 0 48 48" fill="none" xmlns="http://www.w3.org/2000/svg">
<g clip-path="url(#clip0_3_27)">
<g clip-path="url(#clip1_3_27)">
<path d="M24 0C24.4312 0 24.8625 0.09375 25.2562 0.271875L42.9094 7.7625C44.9719 8.63438 46.5094 10.6688 46.5 13.125C46.4531 22.425 42.6281 39.4406 26.475 47.175C24.9094 47.925 23.0906 47.925 21.525 47.175C5.37186 39.4406 1.54686 22.425 1.49998 13.125C1.49061 10.6688 3.02811 8.63438 5.09061 7.7625L22.7531 0.271875C23.1375 0.09375 23.5687 0 24 0ZM24 6.2625V41.7C36.9375 35.4375 40.4156 21.5719 40.5 13.2563L24 6.2625Z" fill="#1E3A8A"/>
</g>
</g>
<defs>
<clipPath id="clip0_3_27">
<rect width="48" height="48" fill="white"/>
</clipPath>
<clipPath id="clip1_3_27">
<path d="M0 0H48V48H0V0Z" fill="white"/>
</clipPath>
</defs>
</svg>
