<svg width="21" height="24" viewBox="0 0 21 24" fill="none" xmlns="http://www.w3.org/2000/svg">
<path d="M21 24H0V0H21V24Z" stroke="#E5E7EB"/>
<path d="M21 24H0V0H21V24Z" stroke="#E5E7EB"/>
<path d="M0 3.75C0 2.50781 1.00781 1.5 2.25 1.5H6.75C7.99219 1.5 9 2.50781 9 3.75V8.25C9 9.49219 7.99219 10.5 6.75 10.5H2.25C1.00781 10.5 0 9.49219 0 8.25V3.75ZM3 4.5V7.5H6V4.5H3ZM0 15.75C0 14.5078 1.00781 13.5 2.25 13.5H6.75C7.99219 13.5 9 14.5078 9 15.75V20.25C9 21.4922 7.99219 22.5 6.75 22.5H2.25C1.00781 22.5 0 21.4922 0 20.25V15.75ZM3 16.5V19.5H6V16.5H3ZM14.25 1.5H18.75C19.9922 1.5 21 2.50781 21 3.75V8.25C21 9.49219 19.9922 10.5 18.75 10.5H14.25C13.0078 10.5 12 9.49219 12 8.25V3.75C12 2.50781 13.0078 1.5 14.25 1.5ZM18 4.5H15V7.5H18V4.5ZM12 14.25C12 13.8375 12.3375 13.5 12.75 13.5H15.75C16.1625 13.5 16.5 13.8375 16.5 14.25C16.5 14.6625 16.8375 15 17.25 15H18.75C19.1625 15 19.5 14.6625 19.5 14.25C19.5 13.8375 19.8375 13.5 20.25 13.5C20.6625 13.5 21 13.8375 21 14.25V18.75C21 19.1625 20.6625 19.5 20.25 19.5H17.25C16.8375 19.5 16.5 19.1625 16.5 18.75C16.5 18.3375 16.1625 18 15.75 18C15.3375 18 15 18.3375 15 18.75V21.75C15 22.1625 14.6625 22.5 14.25 22.5H12.75C12.3375 22.5 12 22.1625 12 21.75V14.25ZM17.25 22.5C17.0511 22.5 16.8603 22.421 16.7197 22.2803C16.579 22.1397 16.5 21.9489 16.5 21.75C16.5 21.5511 16.579 21.3603 16.7197 21.2197C16.8603 21.079 17.0511 21 17.25 21C17.4489 21 17.6397 21.079 17.7803 21.2197C17.921 21.3603 18 21.5511 18 21.75C18 21.9489 17.921 22.1397 17.7803 22.2803C17.6397 22.421 17.4489 22.5 17.25 22.5ZM20.25 22.5C20.0511 22.5 19.8603 22.421 19.7197 22.2803C19.579 22.1397 19.5 21.9489 19.5 21.75C19.5 21.5511 19.579 21.3603 19.7197 21.2197C19.8603 21.079 20.0511 21 20.25 21C20.4489 21 20.6397 21.079 20.7803 21.2197C20.921 21.3603 21 21.5511 21 21.75C21 21.9489 20.921 22.1397 20.7803 22.2803C20.6397 22.421 20.4489 22.5 20.25 22.5Z" fill="white"/>
</svg>
