<svg width="24" height="24" viewBox="0 0 24 24" fill="none" xmlns="http://www.w3.org/2000/svg">
<path d="M24 24H0V0H24V24Z" stroke="#E5E7EB"/>
<g clip-path="url(#clip0_3_113)">
<path d="M23.3484 0.262496C23.8219 0.590621 24.0703 1.15781 23.9813 1.725L20.9813 21.225C20.9109 21.6797 20.6344 22.0781 20.2313 22.3031C19.8281 22.5281 19.3453 22.5562 18.9188 22.3781L13.3125 20.0484L10.1016 23.5219C9.68437 23.9766 9.02813 24.1266 8.45156 23.9016C7.875 23.6766 7.5 23.1187 7.5 22.5V18.5812C7.5 18.3937 7.57031 18.2156 7.69688 18.0797L15.5531 9.50625C15.825 9.21093 15.8156 8.75625 15.5344 8.475C15.2531 8.19375 14.7984 8.175 14.5031 8.44218L4.96875 16.9125L0.829687 14.8406C0.332812 14.5922 0.0140624 14.0953 -5.25615e-08 13.5422C-0.0140626 12.9891 0.276563 12.4734 0.754687 12.1969L21.7547 0.196871C22.2563 -0.0890664 22.875 -0.0609414 23.3484 0.262496Z" fill="white"/>
</g>
<defs>
<clipPath id="clip0_3_113">
<path d="M0 0H24V24H0V0Z" fill="white"/>
</clipPath>
</defs>
</svg>
